<svg xmlns="http://www.w3.org/2000/svg" width="40" height="40" viewBox="0 0 40 40">
  <g id="_622162fa514365fa3867ddce401378a7" data-name="622162fa514365fa3867ddce401378a7" transform="translate(-10.003 -10.074)">
    <g id="Group_1" data-name="Group 1" transform="translate(10.003 10.074)">
      <path id="Path_2" data-name="Path 2" d="M134.593-501.862a1.664,1.664,0,0,0-1.032.767l-.211.368v2.111c0,2.1,0,2.111.2,2.464a2.222,2.222,0,0,0,.532.587,1.164,1.164,0,0,0,.868.235,1.311,1.311,0,0,0,.907-.235,1.591,1.591,0,0,0,.563-.579c.172-.336.18-.4.18-2.448a7.271,7.271,0,0,0-.125-2.354,1.685,1.685,0,0,0-1-.876A1.22,1.22,0,0,0,134.593-501.862Z" transform="translate(-128.315 501.926)" fill="#585858"/>
      <path id="Path_3" data-name="Path 3" d="M583.978-501.512a1.6,1.6,0,0,0-.907.688l-.211.321-.023,2.041c-.031,2.244,0,2.464.4,2.917a1.621,1.621,0,0,0,2.456,0c.4-.453.43-.673.4-2.925l-.023-2.041-.235-.344A1.672,1.672,0,0,0,583.978-501.512Z" transform="translate(-559.447 501.607)" fill="#585858"/>
      <path id="Path_4" data-name="Path 4" d="M11.143-419.822a1.794,1.794,0,0,0-.938.806l-.172.329-.023,13.53c-.016,9.924,0,13.639.062,13.944a1.668,1.668,0,0,0,.868,1.118c.289.141.54.149,9.072.149h8.767l-.047-.18c-.024-.094-.078-.368-.125-.6s-.1-.508-.125-.61l-.031-.172H11.635v-21.741H40.024v8.274l.532.055c.289.023.657.062.821.086l.289.047v-6.89c0-7.539.023-7.2-.453-7.7-.391-.415-.727-.516-1.83-.516h-1v1a3.518,3.518,0,0,1-1.024,3,3.288,3.288,0,0,1-4.63.07,3.613,3.613,0,0,1-1.071-3.073v-1H20v1.1a3.374,3.374,0,0,1-1.071,2.987,3.334,3.334,0,0,1-5.428-1.329,4.855,4.855,0,0,1-.211-1.6l-.039-1.15-.947.008A7.784,7.784,0,0,0,11.143-419.822Z" transform="translate(-10.003 423.248)" fill="#585858"/>
      <path id="Path_5" data-name="Path 5" d="M92.15-212.416v2.464h4.927v-4.927H92.15Z" transform="translate(-88.797 226.598)" fill="#585858"/>
      <path id="Path_6" data-name="Path 6" d="M255.01-212.416v2.464h5v-4.927h-5Z" transform="translate(-245.01 226.598)" fill="#585858"/>
      <path id="Path_7" data-name="Path 7" d="M419.8-212.416v2.464h4.927v-4.927H419.8Z" transform="translate(-403.074 226.598)" fill="#585858"/>
      <path id="Path_8" data-name="Path 8" d="M582.66-212.416v2.464h4.927v-4.927H582.66Z" transform="translate(-559.286 226.598)" fill="#585858"/>
      <path id="Path_9" data-name="Path 9" d="M92.15-49.546v2.464h4.927V-52.01H92.15Z" transform="translate(-88.797 70.377)" fill="#585858"/>
      <path id="Path_10" data-name="Path 10" d="M255.01-49.546v2.464h5V-52.01h-5Z" transform="translate(-245.01 70.377)" fill="#585858"/>
      <path id="Path_11" data-name="Path 11" d="M419.8-49.537v2.464h3.722l.188-.25c.1-.133.368-.469.6-.735l.415-.493V-52H419.8Z" transform="translate(-403.074 70.367)" fill="#585858"/>
      <path id="Path_12" data-name="Path 12" d="M582.66-50.993v1.024L583-50.2a12.965,12.965,0,0,1,3.949-1.611,3.831,3.831,0,0,0,.626-.156c.023-.024-1.071-.047-2.432-.047H582.66Z" transform="translate(-559.286 70.377)" fill="#585858"/>
      <path id="Path_13" data-name="Path 13" d="M509.791-10.769a9.753,9.753,0,0,0-5.944,2.894,9.573,9.573,0,0,0-2.893,6.1,10.032,10.032,0,0,0,1.682,6.569,13,13,0,0,0,2.62,2.62,10,10,0,0,0,7.469,1.556,10.02,10.02,0,0,0,7.648-6.718,10.03,10.03,0,0,0-1.235-8.72,12.982,12.982,0,0,0-2.62-2.62,10.536,10.536,0,0,0-3.754-1.556A12.642,12.642,0,0,0,509.791-10.769Zm.579,3.316c.532.219.516.141.516,3.543V-.837h3.081c2.964,0,3.081.008,3.277.156a1.048,1.048,0,0,1,.289.43.583.583,0,0,1-.055.571c-.274.563-.258.563-4.09.563-3.081,0-3.425-.016-3.676-.141-.547-.266-.547-.274-.547-4.082s0-3.816.547-4.082C510.042-7.594,510.042-7.594,510.37-7.453Z" transform="translate(-480.865 30.86)" fill="#585858"/>
      <path id="Path_14" data-name="Path 14" d="M92.15,113.372v2.5h4.927v-5H92.15Z" transform="translate(-88.797 -85.854)" fill="#585858"/>
      <path id="Path_15" data-name="Path 15" d="M255.01,113.372v2.5h5v-5h-5Z" transform="translate(-245.01 -85.854)" fill="#585858"/>
      <path id="Path_16" data-name="Path 16" d="M419.8,113.363v2.5h1.549l.055-.61a12.932,12.932,0,0,1,.946-3.989l.18-.407H419.8Z" transform="translate(-403.074 -85.844)" fill="#585858"/>
    </g>
  </g>
</svg>
