<svg xmlns="http://www.w3.org/2000/svg" width="40" height="50" viewBox="0 0 40 50">
  <g id="_6eebba19df90b99745033c579b20deef" data-name="6eebba19df90b99745033c579b20deef" transform="translate(-110.4 -10)">
    <g id="Group_2" data-name="Group 2" transform="translate(110.4 10)">
      <path id="Path_17" data-name="Path 17" d="M137.4,10h-27V60h40V22.918Zm6.3,11.781h-5.149V16.658ZM114.322,56.1V13.9h20.3v9.827a1.955,1.955,0,0,0,1.961,1.949h9.887V56.092H114.322Z" transform="translate(-110.4 -10)" fill="#585858"/>
      <rect id="Rectangle_2" data-name="Rectangle 2" width="22.5" height="2.618" transform="translate(8.747 38.732)" fill="#585858"/>
      <rect id="Rectangle_3" data-name="Rectangle 3" width="13.357" height="2.618" transform="translate(8.747 14.322)" fill="#585858"/>
      <path id="Path_18" data-name="Path 18" d="M291.219,404.718h1.453l-5.606,5.6-4.379-4.379L273,415.627l1.848,1.848,7.839-7.834,4.379,4.379,7.454-7.454v1.448h2.618V402.1h-5.919Z" transform="translate(-264.653 -382.149)" fill="#585858"/>
      <rect id="Rectangle_4" data-name="Rectangle 4" width="13.357" height="2.618" transform="translate(8.747 8.65)" fill="#585858"/>
    </g>
  </g>
</svg>
