<svg width="89" height="89" viewBox="0 0 89 89" fill="none" xmlns="http://www.w3.org/2000/svg">
<path d="M39.574 10.5347H9.961C7.717 10.5347 5.56491 11.4261 3.97817 13.0128C2.39142 14.5996 1.5 16.7517 1.5 18.9957V78.2227C1.5 80.4667 2.39142 82.6188 3.97817 84.2055C5.56491 85.7922 7.717 86.6837 9.961 86.6837H69.188C71.432 86.6837 73.5841 85.7922 75.1708 84.2055C76.7576 82.6188 77.649 80.4667 77.649 78.2227V48.6087" stroke="#106B41" stroke-width="3" stroke-linecap="round" stroke-linejoin="round"/>
<path d="M71.2591 4.14579C72.9536 2.45119 75.2518 1.49912 77.6482 1.49902C80.0447 1.49893 82.343 2.45082 84.0376 4.14529C85.7322 5.83976 86.6843 8.138 86.6843 10.5344C86.6844 12.9309 85.7326 15.2292 84.0381 16.9238L43.5751 57.3818L26.5381 61.6448L30.7971 44.6078L71.2591 4.14579Z" stroke="#106B41" stroke-width="3" stroke-linecap="round" stroke-linejoin="round"/>
</svg>
