<svg id="svg10" fill="none" height="512" viewBox="0 0 64 64" width="512" xmlns="http://www.w3.org/2000/svg" xmlns:svg="http://www.w3.org/2000/svg"><g id="g340594" fill="#dc1c4b" stroke-linecap="round" stroke-linejoin="round" transform="matrix(3.78 0 0 3.78 -117.136 390.051)"><path id="path292412" d="m39.458826-102.40549c-1.051433 0-1.901978.85757-1.901978 1.90786v6.586298c0 1.050291.850545 1.907858 1.901978 1.907858s1.90198-.857568 1.90198-1.907858v-6.586298c0-1.05029-.850547-1.90786-1.90198-1.90786z"/><path id="path292418" d="m39.458826-90.748022c-1.027574-.000001-1.8672.826811-1.867199 1.84133 0 1.014518.839625 1.843476 1.867199 1.843476 1.027575-.000001 1.867199-.828958 1.867201-1.843476 0-1.014519-.839626-1.84133-1.867201-1.84133z"/></g></svg>