<svg clip-rule="evenodd" fill-rule="evenodd" height="512" stroke-linejoin="round" stroke-miterlimit="2" viewBox="0 0 24 24" width="512" xmlns="http://www.w3.org/2000/svg"><g id="Icon"><path d="m12 6.25c3.174 0 5.75 2.576 5.75 5.75s-2.576 5.75-5.75 5.75-5.75-2.576-5.75-5.75 2.576-5.75 5.75-5.75zm0 1.5c-2.346 0-4.25 1.904-4.25 4.25s1.904 4.25 4.25 4.25 4.25-1.904 4.25-4.25-1.904-4.25-4.25-4.25z"/><path d="m9.22 12.53c-.293-.292-.293-.768 0-1.06.292-.293.768-.293 1.06 0l.97.969 2.47-2.469c.292-.293.768-.293 1.06 0 .293.292.293.768 0 1.06l-3 3c-.293.293-.767.293-1.06 0z"/><path d="m14.618 1.899s.952 2.293.952 2.293c.493.226.964.498 1.406.812l2.462-.321c.249-.033.498.061.663.25.915 1.05 1.618 2.267 2.069 3.585.082.237.039.5-.114.699 0 0-1.509 1.971-1.509 1.971.051.54.051 1.084 0 1.624l1.509 1.971c.153.199.196.462.114.699-.451 1.318-1.154 2.535-2.069 3.585-.165.189-.414.283-.663.25 0 0-2.462-.321-2.461-.322-.442.315-.914.587-1.407.812l-.952 2.294c-.096.231-.302.4-.548.448-1.367.268-2.773.268-4.14 0-.246-.048-.452-.217-.548-.448 0 0-.952-2.293-.952-2.293-.493-.226-.964-.498-1.406-.812l-2.462.321c-.249.033-.498-.061-.663-.25-.915-1.05-1.618-2.267-2.069-3.585-.082-.237-.039-.5.114-.699 0 0 1.509-1.971 1.509-1.971-.051-.54-.051-1.084 0-1.624l-1.509-1.971c-.153-.199-.196-.462-.114-.699.451-1.318 1.154-2.535 2.069-3.585.165-.189.414-.283.663-.25 0 0 2.462.321 2.461.322.442-.315.914-.587 1.407-.812l.952-2.294c.096-.231.302-.4.548-.448 1.367-.268 2.773-.268 4.14 0 .246.048.452.217.548.448zm-1.228.956c-.921-.14-1.859-.14-2.781 0l-.91 2.192c-.076.184-.222.329-.406.405-.575.238-1.116.551-1.61.93-.158.121-.357.175-.554.149 0 0-2.353-.308-2.354-.307-.582.728-1.05 1.54-1.39 2.408l1.443 1.884c.121.158.174.357.148.554-.082.617-.082 1.243 0 1.86.026.197-.027.396-.148.554 0 0-1.443 1.884-1.443 1.885.34.868.808 1.68 1.391 2.408l2.353-.308c.197-.026.396.028.554.149.494.379 1.035.692 1.61.93.184.076.33.221.406.405 0 0 .91 2.192.911 2.192.921.14 1.859.14 2.781 0l.91-2.192c.076-.184.222-.329.406-.405.575-.238 1.116-.551 1.61-.93.158-.121.357-.175.554-.149 0 0 2.353.308 2.354.307.582-.728 1.05-1.54 1.39-2.408l-1.443-1.884c-.121-.158-.174-.357-.148-.554.082-.617.082-1.243 0-1.86-.026-.197.027-.396.148-.554 0 0 1.443-1.884 1.443-1.885-.34-.868-.808-1.68-1.391-2.408l-2.353.308c-.197.026-.396-.028-.554-.149-.494-.379-1.035-.692-1.61-.93-.184-.076-.33-.221-.406-.405z"/></g></svg>