<svg xmlns="http://www.w3.org/2000/svg" width="40" height="33.464" viewBox="0 0 40 33.464">
  <g id="ca43108ded5aabc7793d3f9b928cdd54" transform="translate(-10 -80)">
    <g id="Group_3" data-name="Group 3" transform="translate(10 80)">
      <path id="Path_31" data-name="Path 31" d="M47.143,85.577H31.429A1.518,1.518,0,0,1,30,84.183V82.789A3.036,3.036,0,0,0,27.143,80H12.857A3.036,3.036,0,0,0,10,82.789v30.676H50v-25.1A3.036,3.036,0,0,0,47.143,85.577ZM12.857,84.183a1.484,1.484,0,0,1,1.429-1.394H25.714a1.518,1.518,0,0,1,1.429,1.394v1.394H12.857ZM30,107.887V102.31c-5.58,0-10,2.442-11.429,8.366,0-9.107,4.776-13.944,11.429-13.944V91.155l11.429,8.366Z" transform="translate(-10 -80)" fill="#585858"/>
    </g>
  </g>
</svg>
