<?xml version="1.0" encoding="UTF-8" standalone="no"?>
<!-- Created with Inkscape (http://www.inkscape.org/) -->

<svg
   version="1.1"
   id="svg3372"
   xml:space="preserve"
   width="682.66669"
   height="682.66669"
   viewBox="0 0 682.66669 682.66669"
   xmlns="http://www.w3.org/2000/svg"
   xmlns:svg="http://www.w3.org/2000/svg"><defs
     id="defs3376"><clipPath
       clipPathUnits="userSpaceOnUse"
       id="clipPath3386"><path
         d="M 0,512 H 512 V 0 H 0 Z"
         id="path3384" /></clipPath></defs><g
     id="g3378"
     transform="matrix(1.3333333,0,0,-1.3333333,0,682.66667)"><g
       id="g3380"><g
         id="g3382"
         clip-path="url(#clipPath3386)"><g
           id="g3388"
           transform="translate(408,128)"><path
             d="m 0,0 h 29 c 33.14,0 60,26.86 60,60 v 120 c 0,33.14 -26.86,60 -60,60 h -362 c -33.14,0 -60,-26.86 -60,-60 V 60 c 0,-33.14 26.86,-60 60,-60 h 29"
             style="fill:none;stroke:#000000;stroke-width:30;stroke-linecap:round;stroke-linejoin:round;stroke-miterlimit:10;stroke-dasharray:none;stroke-opacity:1"
             id="path3390" /></g><g
           id="g3392"
           transform="translate(432,208)"><path
             d="M 0,0 H -352"
             style="fill:none;stroke:#000000;stroke-width:30;stroke-linecap:round;stroke-linejoin:round;stroke-miterlimit:10;stroke-dasharray:none;stroke-opacity:1"
             id="path3394" /></g><g
           id="g3396"
           transform="translate(134,15)"><path
             d="m 0,0 h 244 c 16.568,0 30,13.432 30,30 V 193 H -30 V 30 C -30,13.432 -16.568,0 0,0 Z"
             style="fill:none;stroke:#000000;stroke-width:30;stroke-linecap:round;stroke-linejoin:round;stroke-miterlimit:10;stroke-dasharray:none;stroke-opacity:1"
             id="path3398" /></g><g
           id="g3400"
           transform="translate(296,144)"><path
             d="M 0,0 H -80"
             style="fill:none;stroke:#000000;stroke-width:30;stroke-linecap:round;stroke-linejoin:round;stroke-miterlimit:10;stroke-dasharray:none;stroke-opacity:1"
             id="path3402" /></g><g
           id="g3404"
           transform="translate(296,80)"><path
             d="M 0,0 H -80"
             style="fill:none;stroke:#000000;stroke-width:30;stroke-linecap:round;stroke-linejoin:round;stroke-miterlimit:10;stroke-dasharray:none;stroke-opacity:1"
             id="path3406" /></g><g
           id="g3408"
           transform="translate(128,304)"><path
             d="M 0,0 H -48"
             style="fill:none;stroke:#000000;stroke-width:30;stroke-linecap:round;stroke-linejoin:round;stroke-miterlimit:10;stroke-dasharray:none;stroke-opacity:1"
             id="path3410" /></g><g
           id="g3412"
           transform="translate(164,497)"><path
             d="m 0,0 h 184 c 33.137,0 60,-26.863 60,-60 v -69 H -60 v 69 c 0,33.137 26.863,60 60,60 z"
             style="fill:none;stroke:#000000;stroke-width:30;stroke-linecap:round;stroke-linejoin:round;stroke-miterlimit:10;stroke-dasharray:none;stroke-opacity:1"
             id="path3414" /></g></g></g></g></svg>
